<svg width="500" height="500" viewBox="0 0 500 500" fill="none" xmlns="http://www.w3.org/2000/svg">
<g clip-path="url(#clip0_1146_1369)">
<g clip-path="url(#clip1_1146_1369)">
<path d="M467.6 251.91C462.67 293.71 443.6 342.32 405.46 364.64C347.87 398.39 352.69 450.28 240.27 472.84C223.876 476.209 207.165 477.788 190.43 477.55C182.239 477.399 174.066 476.731 165.96 475.55C94.51 465.12 46.43 415.46 28.79 355.5C5.58001 276.66 51.93 225 82.65 193.94C113.37 162.88 135.88 65.94 246.22 42.94C263.05 39.3283 280.24 37.6706 297.45 38C336.71 39 379.53 51.86 409.16 78.76C411.38 80.76 413.547 82.8533 415.66 85.04C456.84 127.33 474.34 194.92 467.6 251.91Z" fill="#1FC55C"/>
<path opacity="0.7" d="M467.6 251.91C462.67 293.71 443.6 342.32 405.46 364.64C347.87 398.39 352.69 450.28 240.27 472.84C223.876 476.209 207.165 477.788 190.43 477.55C182.239 477.399 174.066 476.731 165.96 475.55C94.51 465.12 46.43 415.46 28.79 355.5C5.58001 276.66 51.93 225 82.65 193.94C113.37 162.88 135.88 65.94 246.22 42.94C263.05 39.3283 280.24 37.6706 297.45 38C336.71 39 379.53 51.86 409.16 78.76C411.38 80.76 413.547 82.8533 415.66 85.04C456.84 127.33 474.34 194.92 467.6 251.91Z" fill="white"/>
<path d="M24.72 464.1H476.1" stroke="#263238" stroke-linecap="round" stroke-linejoin="round"/>
<path d="M349.13 73.4H387.23C387.23 73.4 390.88 62.4 384.3 58.4C377.72 54.4 377.72 59.86 372.6 57.66C368.38 55.85 367.6 52.41 366.4 48.77C366.27 48.35 366.13 47.93 365.98 47.52C365.573 46.3824 365.043 45.2926 364.4 44.27" stroke="#B2B2B2" stroke-linecap="round" stroke-linejoin="round"/>
<path d="M359.92 39.54C350.38 32.54 334.59 35.17 334.59 50.01C334.59 53.66 325.81 50.01 322.52 54.76C319.23 59.51 322.89 62.44 318.52 63.9C314.15 65.36 313.77 61.71 308.28 62.07C302.79 62.43 303.53 67.55 301.7 69.02C299.87 70.49 299.88 69.75 295.86 70.11C291.84 70.47 291.1 73.4 291.1 73.4H342.4" stroke="#B2B2B2" stroke-linecap="round" stroke-linejoin="round"/>
<path d="M369.73 69.4C370.262 67.5243 370.272 65.5392 369.762 63.6577C369.251 61.7763 368.237 60.0693 366.83 58.72C361.94 54.2 356.83 56.72 355.42 58.72C354.01 60.72 353.97 64.52 351.62 64.88C349.27 65.24 349.81 60.88 344.74 61.98C339.67 63.08 341.66 68.14 339.31 69.22C336.96 70.3 336.96 66.33 333.7 67.59C330.44 68.85 330.62 71.21 330.62 71.21" stroke="#B2B2B2" stroke-linecap="round" stroke-linejoin="round"/>
<path d="M343.72 57.1C342.387 56.1518 340.824 55.5776 339.194 55.4369C337.564 55.2963 335.926 55.5943 334.45 56.3C329.21 58.72 331.63 63.76 329.21 64.97C326.79 66.18 325.58 64.76 322.56 66.18C319.54 67.6 319.73 69.6 319.73 69.6" stroke="#B2B2B2" stroke-linecap="round" stroke-linejoin="round"/>
<path d="M89 141.32C88.1123 140.831 87.0999 140.615 86.09 140.7C82.94 140.91 83.36 143.85 82.31 144.7C81.26 145.55 81.31 145.12 78.96 145.33C78.3661 145.321 77.7841 145.497 77.2949 145.834C76.8057 146.171 76.4335 146.652 76.23 147.21H131.4C131.4 147.21 132.76 143.14 131.32 140.34" stroke="#B2B2B2" stroke-linecap="round" stroke-linejoin="round"/>
<path d="M129.74 138.6C125.97 136.3 125.97 139.44 123.03 138.18C120.6 137.18 120.15 135.18 119.47 133.08L119.23 132.36C116.04 123.5 101.23 122.89 101.23 133.78C101.23 135.88 96.23 133.78 94.31 136.51C92.39 139.24 94.52 140.91 92 141.75" stroke="#B2B2B2" stroke-linecap="round" stroke-linejoin="round"/>
<path d="M121.38 144.91C121.685 143.834 121.692 142.695 121.399 141.615C121.107 140.535 120.526 139.555 119.72 138.78C116.91 136.18 114 137.64 113.17 138.78C112.34 139.92 112.34 142.1 110.99 142.31C109.64 142.52 109.99 140.03 107.04 140.65C104.09 141.27 105.28 144.18 103.92 144.81C102.56 145.44 102.57 143.14 100.7 143.87C98.83 144.6 98.94 146 98.94 146" stroke="#B2B2B2" stroke-linecap="round" stroke-linejoin="round"/>
<path d="M106.46 137.85C105.695 137.305 104.798 136.976 103.863 136.895C102.927 136.814 101.987 136.985 101.14 137.39C98.14 138.78 99.52 141.67 98.14 142.39C96.76 143.11 96.06 142.28 94.32 143.09C92.58 143.9 92.7 145.09 92.7 145.09" stroke="#B2B2B2" stroke-linecap="round" stroke-linejoin="round"/>
<path d="M218 45.52C217.117 45.0295 216.107 44.8136 215.1 44.9C211.95 45.11 212.37 48.05 211.32 48.9C210.27 49.75 210.27 49.32 207.96 49.52C207.367 49.5139 206.786 49.6925 206.299 50.0312C205.811 50.3698 205.441 50.8517 205.24 51.41H260.41C260.41 51.41 261.77 47.34 260.33 44.54" stroke="#B2B2B2" stroke-linecap="round" stroke-linejoin="round"/>
<path d="M258.69 42.8C254.92 40.49 254.92 43.64 251.98 42.38C249.55 41.38 249.1 39.38 248.42 37.28L248.18 36.56C244.99 27.7 230.18 27.08 230.18 37.98C230.18 40.07 225.18 37.98 223.26 40.7C221.34 43.42 223.47 45.11 220.95 45.95" stroke="#B2B2B2" stroke-linecap="round" stroke-linejoin="round"/>
<path d="M250.33 49.11C250.631 48.0358 250.635 46.9 250.341 45.8239C250.046 44.7478 249.466 43.7718 248.66 43C245.86 40.4 242.95 41.85 242.12 43C241.29 44.15 241.29 46.32 239.94 46.53C238.59 46.74 238.94 44.24 235.99 44.87C233.04 45.5 234.22 48.4 232.87 49.02C231.52 49.64 231.52 47.36 229.65 48.09C227.78 48.82 227.88 50.17 227.88 50.17" stroke="#B2B2B2" stroke-linecap="round" stroke-linejoin="round"/>
<path d="M235.4 42.05C234.635 41.5055 233.738 41.1756 232.803 41.0947C231.867 41.0138 230.927 41.1848 230.08 41.59C227.08 42.97 228.46 45.87 227.08 46.59C225.7 47.31 224.99 46.47 223.26 47.28C221.53 48.09 221.64 49.28 221.64 49.28" stroke="#B2B2B2" stroke-linecap="round" stroke-linejoin="round"/>
<path d="M326.121 125.318C335.353 125.318 342.869 117.582 342.869 108.074C342.869 98.5642 335.353 90.8293 326.121 90.8293C316.883 90.8293 309.369 98.5642 309.369 108.074C309.369 117.582 316.883 125.318 326.121 125.318ZM326.121 94.0613C333.622 94.0613 339.728 100.348 339.728 108.074C339.728 115.8 333.622 122.087 326.121 122.087C318.613 122.087 312.51 115.8 312.51 108.074C312.51 100.346 318.613 94.0613 326.121 94.0613ZM300.282 99.6627C300.273 99.5562 300.285 99.449 300.319 99.3444C300.451 98.92 300.897 98.6875 301.308 98.8242L305.602 100.26C306.014 100.398 306.24 100.854 306.105 101.28C305.996 101.621 305.691 101.838 305.361 101.838C305.361 101.838 305.361 101.838 305.358 101.838C305.278 101.838 305.195 101.827 305.115 101.799L300.823 100.364C300.511 100.26 300.31 99.9756 300.282 99.6627ZM309.959 86.4961C309.704 86.1349 309.78 85.6282 310.133 85.3662C310.484 85.1027 310.978 85.1824 311.232 85.5439L313.885 89.3041C314.141 89.6661 314.063 90.1713 313.709 90.4329C313.572 90.5375 313.409 90.5865 313.249 90.5865C313.009 90.5865 312.767 90.4712 312.616 90.2529L312.612 90.2513L309.959 86.4961ZM338.428 90.3563C338.077 90.0928 338.001 89.5895 338.252 89.2256L340.902 85.4673C341.159 85.1027 341.65 85.0257 342.003 85.2896C342.352 85.5516 342.428 86.0549 342.173 86.4195L339.525 90.177C339.37 90.395 339.131 90.5122 338.89 90.5122C338.726 90.5118 338.567 90.4608 338.428 90.3563ZM346.095 101.156C345.96 100.734 346.185 100.278 346.599 100.139L350.89 98.7001C351.306 98.5607 351.747 98.7948 351.881 99.2203C352.013 99.6447 351.787 100.1 351.374 100.238L347.085 101.677C347.004 101.704 346.921 101.717 346.841 101.717C346.51 101.717 346.205 101.499 346.095 101.156ZM351.921 116.469C351.813 116.812 351.502 117.03 351.174 117.03C351.094 117.03 351.011 117.016 350.933 116.989L346.64 115.554C346.226 115.416 346.002 114.96 346.134 114.536C346.269 114.111 346.717 113.877 347.125 114.016L351.416 115.451C351.83 115.589 352.053 116.044 351.921 116.469ZM339.624 125.559L342.278 129.317C342.531 129.676 342.456 130.185 342.102 130.446C341.963 130.551 341.801 130.6 341.642 130.6C341.399 130.6 341.163 130.484 341.008 130.267L338.355 126.511C338.1 126.151 338.176 125.643 338.527 125.382C338.876 125.122 339.37 125.197 339.624 125.559ZM326.489 129.618C326.77 129.74 326.966 130.027 326.966 130.362V135.008C326.966 135.455 326.617 135.815 326.18 135.815C325.749 135.815 325.397 135.455 325.397 135.008V130.362C325.397 129.915 325.748 129.555 326.18 129.555C326.287 129.553 326.392 129.576 326.489 129.618ZM313.81 125.455C313.984 125.585 314.091 125.779 314.123 125.986C314.155 126.189 314.113 126.406 313.983 126.586L311.331 130.346C311.179 130.566 310.939 130.679 310.697 130.679C310.535 130.679 310.377 130.631 310.235 130.527C310.061 130.395 309.952 130.203 309.922 129.998C309.906 129.895 309.908 129.791 309.935 129.688C309.956 129.586 309.998 129.485 310.062 129.397L312.714 125.637C312.971 125.272 313.46 125.194 313.81 125.455ZM306.143 114.654C306.275 115.082 306.05 115.538 305.637 115.674V115.676L301.345 117.112C301.265 117.139 301.181 117.15 301.105 117.15C300.771 117.15 300.463 116.934 300.355 116.593C300.321 116.485 300.314 116.38 300.321 116.273C300.346 115.96 300.55 115.676 300.862 115.572L305.154 114.137C305.568 113.998 306.012 114.233 306.143 114.654ZM325.27 85.4566V85.4532V80.807C325.27 80.36 325.621 80 326.055 80C326.491 80 326.838 80.362 326.838 80.807V85.4566C326.838 85.9028 326.49 86.2636 326.055 86.2636C325.624 86.2656 325.27 85.9024 325.27 85.4566ZM428.26 218.215C429 217.693 429.219 216.671 428.762 215.877C428.305 215.081 427.323 214.79 426.529 215.212C426.007 215.485 425.468 215.715 424.932 215.952C421.249 206.952 413.226 197.061 401.273 187.143L398.51 145.126C398.423 143.775 397.329 142.724 396.013 142.724H312.736C262.392 128.23 222.489 132.036 215.163 152.267C210.3 165.706 220.968 183.215 241.902 199.994L239.257 240.203C239.21 240.914 239.451 241.615 239.926 242.137C240.399 242.659 241.059 242.955 241.751 242.955H320.828V255.029L284.902 262.753C283.709 263.009 282.868 264.117 282.912 265.37C282.961 266.627 283.877 267.668 285.088 267.828L323.346 272.964C323.412 272.969 323.467 273 323.532 273C323.57 273 323.613 272.993 323.651 272.993C323.691 272.993 323.733 273 323.773 273C323.839 273 323.894 272.969 323.957 272.964L358.517 268.323L356.128 267.476L361.175 262.487L325.83 254.893V242.955H329.332C343.761 247.06 357.775 249.738 370.751 250.817C371.555 252.126 372.449 253.456 373.508 254.825C373.057 255.431 372.609 256.019 372.149 256.57C371.237 257.768 370.289 258.81 369.429 259.805C368.587 260.824 367.721 261.618 366.988 262.408C366.262 263.188 365.573 263.844 364.982 264.355C363.833 265.411 363.194 266.041 363.194 266.041L366.67 267.276L374.004 258.342C374.553 257.786 375.116 257.214 375.692 256.631C375.857 256.448 376.02 256.244 376.181 256.055C379.364 256.631 382.272 256.935 384.807 256.935C386.624 256.935 388.27 256.774 389.791 256.484C389.793 256.484 389.795 256.488 389.795 256.488C392.397 257.48 394.747 257.929 396.881 257.929C404.114 257.929 408.856 252.757 412.603 246.166L412.681 246.35C419.47 243.299 424.12 238.751 426.133 233.199C427.581 229.191 427.607 224.729 426.315 219.963C426.937 219.302 427.578 218.694 428.26 218.215ZM320.828 267.432L300.383 264.686L320.828 260.292V267.432ZM396.032 183.718L397.107 200.031H370.233L366.765 196.943L366.362 186.726L369.535 183.718H396.032V183.718ZM395.862 181.145H369.68L366.004 177.679L365.594 167.291L368.732 164.319H394.758L395.862 181.145ZM393.674 147.875L394.589 161.743H368.814L365.242 158.377L364.829 147.875H393.674ZM325.02 147.875H362.323L362.752 158.73L359.938 161.743H327.963L325.02 158.596V147.875ZM325.02 167.037L327.834 164.319H360.255L363.072 166.845L363.518 178.172L360.74 181.145H327.991L325.02 177.967V167.037ZM325.02 186.118L327.697 183.717H361.122L363.836 186.148L364.277 197.321L361.745 200.027H328.439L325.022 196.879V186.118L325.02 186.118ZM325.02 205.891L328.723 202.605H361.679L364.596 205.387L365.002 215.709L362.236 218.49H328.164L325.02 215.33V205.891ZM306.528 231.747C298.892 228.819 291.578 225.635 284.635 222.28L285.91 221.062H319.358L322.519 224.255V237.335C317.217 235.655 311.879 233.799 306.528 231.747ZM287.153 183.718H319.198L322.521 186.868V197.304L319.523 200.028H286.444L283.762 197.161L284.188 186.378L287.153 183.718ZM284.518 178.009L284.949 167.072L288.022 164.316H319.34L322.521 167.165V177.956L319.14 181.143H287.446L284.518 178.009ZM286.598 202.605H319.623L322.522 205.49V215.87L319.566 218.486H285.951L283.036 215.558L283.427 205.624L286.598 202.605ZM282.779 158.613L279.461 161.741H249.43L250.343 147.873H283.204L282.779 158.613ZM279.452 164.319L282.443 167.152L282.018 177.915L278.594 181.145H248.158L249.264 164.319H279.452ZM278.65 183.718L281.675 186.585L281.259 197.168L278.044 200.028H247.508C247.316 199.885 247.133 199.738 246.943 199.595L247.987 183.718H278.65ZM277.621 202.605L280.919 205.741L280.526 215.669L277.351 218.486H277.07C267.442 213.449 258.689 208.087 251.02 202.603H277.621L277.621 202.605ZM322.519 158.569L319.1 161.743H288.251L285.284 158.569L285.706 147.875H322.519V158.569ZM218.291 153.466C224.176 137.213 257.656 133.194 299.055 142.724H248.006C246.69 142.724 245.599 143.773 245.512 145.126L242.177 195.83C223.659 180.582 214.098 165.051 218.291 153.466ZM269.824 218.486H245.701L246.675 203.666C253.524 208.751 261.276 213.738 269.824 218.486ZM279.655 237.802H244.429L245.53 221.061H274.582C276.285 221.96 278.023 222.848 279.782 223.726L280.191 224.143L279.655 237.802ZM346.922 264.686L325.832 267.517V260.152L346.922 264.686ZM282.158 237.802L282.658 225.137C289.832 228.614 297.414 231.915 305.361 234.965C307.951 235.956 310.535 236.894 313.119 237.802H282.158ZM343.163 242.952H364.693C364.333 241.215 364.179 239.5 364.235 237.802H325.02V224.028L328.124 221.063H362.365L365.327 223.896L365.603 230.921C366.213 229.33 366.999 227.848 367.928 226.454L367.845 224.289L371.043 221.061H372.585C373.549 220.163 374.568 219.307 375.622 218.486H370.925L367.494 215.444L367.117 205.878L370.564 202.602H397.274L397.369 204.067C398.208 203.299 398.84 202.564 399.172 201.879C399.814 200.553 400.828 199.525 402.042 198.866L401.582 191.869C411.781 200.724 418.668 209.368 421.869 217.121C416.856 218.708 411.443 219.108 406.164 219.491C404.942 219.578 403.726 219.673 402.518 219.773C402.559 214.911 402.964 210.225 404.447 206.28C404.772 205.406 404.377 204.424 403.549 204.047C402.718 203.667 401.745 204.029 401.341 204.866C399.382 208.901 393.494 212.414 387.264 216.134C378.602 221.299 368.79 227.158 367.142 236.357C366.53 239.769 367.088 243.352 368.793 247.167C360.599 246.38 352.01 244.965 343.163 242.952ZM378.766 252.931C379.357 252.16 379.94 251.368 380.525 250.565C381.503 249.069 382.545 247.578 383.46 246.016C384.393 244.457 385.241 242.859 386.085 241.293C386.923 239.723 387.655 238.127 388.371 236.597C389.792 233.524 390.965 230.61 391.937 228.093C392.915 225.587 393.681 223.474 394.226 221.994C394.779 220.521 395.071 219.657 395.071 219.657C395.074 219.657 392.854 222.519 390.185 227.203C388.82 229.518 387.324 232.265 385.71 235.175C384.901 236.623 384.069 238.121 383.217 239.644C382.363 241.157 381.496 242.694 380.567 244.181C379.709 245.722 378.739 247.174 377.829 248.643C377.05 249.728 376.35 250.849 375.612 251.911C371.4 246.251 369.707 241.357 370.483 236.997C371.849 229.387 380.55 224.192 388.968 219.169C392.865 216.843 396.634 214.592 399.577 212.136C398.926 217.09 399.088 222.417 399.244 227.627C399.516 236.743 399.772 245.355 395.537 249.853C392.437 253.14 386.923 254.133 378.766 252.931ZM395.534 254.316C396.433 253.738 397.248 253.061 397.979 252.287C401.566 248.479 402.563 242.906 402.746 236.595C402.815 236.548 402.894 236.53 402.958 236.474L402.986 236.449L414.659 226.311L402.765 232.652C402.746 230.968 402.696 229.252 402.646 227.516C402.604 226.109 402.567 224.697 402.54 223.288C403.821 223.176 405.111 223.081 406.403 222.984C411.31 222.629 416.33 222.264 421.159 220.977C418.786 224.586 416.821 229.08 414.779 233.732C409.956 244.736 405.372 255.211 395.534 254.316ZM423.005 231.997C421.716 235.562 419.042 238.66 415.203 241.118C416.134 239.151 417.016 237.142 417.877 235.172C419.768 230.857 421.604 226.701 423.691 223.406C424.159 226.488 423.958 229.373 423.005 231.997Z" fill="black"/>
<path d="M9.82999 160.35C14.09 162.21 24.52 161.97 24.53 161.97C24.54 161.97 22.29 155.14 22.09 154.73C19.8 149.94 12.56 142.04 6.67999 142.83C5.69942 142.98 4.76189 143.336 3.92953 143.876C3.09716 144.415 2.38898 145.126 1.85191 145.96C1.31484 146.794 0.961148 147.732 0.814277 148.713C0.667406 149.694 0.73071 150.695 0.999992 151.65C1.99999 155.73 6.19999 158.76 9.82999 160.35Z" fill="#263238"/>
<path d="M13.43 190.56C17.85 191.2 27.16 188.5 27.9 188.28C29.4324 193.609 31.3166 198.83 33.54 203.91C34.82 206.91 36.21 209.82 37.63 212.75C36.78 211.51 36.01 210.4 35.89 210.26C32.42 206.26 23.35 200.53 17.89 202.86C16.9872 203.266 16.1809 203.86 15.5243 204.601C14.8677 205.341 14.3757 206.213 14.0809 207.158C13.786 208.103 13.695 209.1 13.8138 210.083C13.9325 211.066 14.2585 212.012 14.77 212.86C16.77 216.53 21.63 218.35 25.55 218.92C29.47 219.49 37.55 217.36 39.62 216.77C40.18 217.89 40.72 219.01 41.28 220.13C43.98 225.5 46.69 230.84 49.19 236.13C50.07 238.01 50.87 239.89 51.68 241.77C50.93 240.66 50.28 239.77 50.17 239.61C46.7 235.61 37.63 229.88 32.17 232.21C31.2672 232.616 30.4609 233.21 29.8043 233.95C29.1477 234.691 28.6557 235.563 28.3609 236.508C28.066 237.453 27.975 238.45 28.0938 239.433C28.2125 240.416 28.5385 241.362 29.05 242.21C31.05 245.88 35.91 247.7 39.83 248.27C43.75 248.84 51 246.92 53.5 246.23C54.27 248.23 55.04 250.13 55.7 252.05C56.12 253.37 56.61 254.62 56.96 255.97L58.06 259.97C58.67 262.51 59.32 265.13 59.85 267.62C60.23 269.35 60.56 271 60.9 272.67C60.05 270.79 58.29 267.15 58.11 266.87C55.29 262.37 47.19 255.35 41.43 256.82C40.4784 257.086 39.5939 257.551 38.8347 258.183C38.0755 258.816 37.4589 259.602 37.0253 260.49C36.5917 261.378 36.351 262.347 36.3191 263.335C36.2871 264.323 36.4647 265.306 36.84 266.22C38.28 270.16 42.79 272.69 46.58 273.85C50.75 275.13 59.99 273.96 61.14 273.85C61.7 276.61 62.21 279.3 62.65 281.85C62.98 283.73 63.29 285.54 63.56 287.28H67.26C66.91 285.34 66.53 283.28 66.11 281.2C65.56 278.39 64.92 275.41 64.22 272.35C67.0022 271.236 69.7169 269.961 72.35 268.53C75.35 271.82 83.19 275.67 84.19 276.16C83.13 278.77 82.08 281.3 81.04 283.67C80.5 284.92 79.97 286.11 79.44 287.28H83.35C83.66 286.54 83.97 285.81 84.28 285.04C85.37 282.39 86.48 279.55 87.6 276.61C88.71 276.85 97.86 278.7 102.12 277.74C105.99 276.87 110.67 274.68 112.4 270.86C112.843 269.976 113.094 269.008 113.136 268.02C113.178 267.032 113.01 266.047 112.643 265.129C112.277 264.21 111.72 263.38 111.009 262.693C110.298 262.005 109.45 261.476 108.52 261.14C102.89 259.25 94.29 265.64 91.14 269.91C90.95 270.17 89.24 273.12 88.14 275.01C88.59 273.81 89.04 272.65 89.48 271.4C90.38 268.95 91.21 266.48 92.1 263.83C92.49 262.53 92.89 261.22 93.28 259.89C93.67 258.56 93.98 257.16 94.34 255.78C95.11 252.56 95.73 249.26 96.28 245.93C98.42 246.71 106.09 249.38 110.06 249.1C114.03 248.82 118.97 247.37 121.26 243.85C121.851 243.048 122.263 242.128 122.47 241.153C122.676 240.179 122.673 239.171 122.459 238.198C122.245 237.225 121.826 236.309 121.229 235.511C120.633 234.712 119.873 234.051 119 233.57C113.72 230.84 104.25 235.87 100.49 239.57C100.26 239.8 97.86 242.79 96.57 244.46C96.89 242.46 97.21 240.46 97.47 238.41C98.2 232.52 98.75 226.53 99.34 220.56C99.51 218.73 99.71 216.91 99.91 215.09C100.67 215.38 109.71 218.74 114.16 218.43C118.11 218.15 123.07 216.7 125.36 213.18C125.929 212.374 126.322 211.457 126.511 210.488C126.701 209.52 126.684 208.522 126.461 207.561C126.238 206.6 125.815 205.697 125.218 204.91C124.622 204.124 123.866 203.473 123 203C117.72 200.28 108.25 205.3 104.49 209C104.2 209.28 100.76 213.59 99.94 214.73C100.36 210.73 100.82 206.73 101.44 202.79C102.242 197.492 103.385 192.251 104.86 187.1C105.22 187.24 114.64 190.79 119.2 190.47C123.15 190.2 128.11 188.74 130.4 185.23C130.959 184.423 131.342 183.507 131.524 182.543C131.706 181.578 131.683 180.586 131.457 179.63C131.231 178.675 130.806 177.778 130.21 176.997C129.615 176.217 128.862 175.57 128 175.1C122.72 172.38 113.26 177.4 109.49 181.1C109.2 181.4 105.49 186.03 104.89 186.92C104.97 186.62 105.03 186.3 105.12 186.01C106.753 180.887 108.834 175.918 111.34 171.16C112.69 168.51 114.13 166.06 115.59 163.71C117.27 164.55 125.03 168.31 129.16 168.48C133.16 168.64 138.21 167.74 140.87 164.48C141.528 163.741 142.022 162.871 142.319 161.927C142.616 160.983 142.709 159.986 142.593 159.003C142.477 158.021 142.154 157.074 141.645 156.225C141.135 155.376 140.452 154.645 139.64 154.08C134.64 150.8 124.73 154.75 120.58 158.08C120.35 158.26 118.26 160.35 116.76 161.88C117.43 160.88 118.11 159.73 118.76 158.74C121.25 154.99 123.76 151.74 126 148.84C127.29 147.21 128.48 145.76 129.62 144.42C131.71 144.42 140.11 144.13 143.79 142.42C147.47 140.71 151.48 137.59 152.35 133.49C152.593 132.531 152.63 131.532 152.458 130.558C152.287 129.584 151.911 128.657 151.356 127.839C150.8 127.021 150.077 126.33 149.235 125.811C148.393 125.292 147.451 124.958 146.47 124.83C140.56 124.2 133.54 132.29 131.38 137.14C131.19 137.56 129.03 144.45 129.14 144.45H129.26C128.14 145.72 126.96 147.1 125.7 148.62C123.39 151.46 120.8 154.69 118.23 158.4C115.406 162.357 112.818 166.478 110.48 170.74C107.831 175.498 105.616 180.485 103.86 185.64L103.8 185.83C103.8 184.09 103.8 179.22 103.71 178.83C103.03 173.56 98.62 163.83 92.77 162.72C91.7943 162.562 90.7962 162.613 89.8416 162.869C88.8869 163.125 87.9972 163.58 87.2311 164.204C86.465 164.829 85.8397 165.608 85.3966 166.492C84.9534 167.375 84.7024 168.343 84.66 169.33C84.32 173.51 87.35 177.7 90.31 180.33C93.64 183.33 102.89 186.19 103.63 186.41C101.971 191.701 100.664 197.096 99.72 202.56C99.15 205.74 98.72 208.96 98.25 212.19C98.25 210.68 98.25 209.34 98.17 209.19C97.49 203.93 93.08 194.19 87.23 193.08C86.255 192.924 85.2581 192.976 84.3046 193.232C83.3511 193.489 82.4627 193.944 81.6977 194.569C80.9327 195.193 80.3085 195.972 79.8659 196.855C79.4234 197.737 79.1726 198.704 79.13 199.69C78.78 203.88 81.81 208.06 84.77 210.69C87.73 213.32 95.61 215.99 97.69 216.69C97.54 217.93 97.37 219.17 97.22 220.42C96.51 226.42 95.83 232.33 94.97 238.15C94.68 240.15 94.31 242.21 93.97 244.22C93.97 242.89 93.92 241.76 93.9 241.59C93.22 236.33 88.81 226.59 82.97 225.48C81.9935 225.321 80.9944 225.37 80.0385 225.626C79.0826 225.881 78.1917 226.335 77.4244 226.96C76.6572 227.585 76.031 228.365 75.5872 229.249C75.1435 230.133 74.8922 231.102 74.85 232.09C74.51 236.27 77.54 240.46 80.5 243.09C83.46 245.72 90.58 248.09 93.05 248.93C92.61 250.93 92.18 253.03 91.67 254.99C91.29 256.33 91.02 257.64 90.56 258.99C90.1 260.34 89.72 261.6 89.3 262.89C88.41 265.35 87.5 267.89 86.57 270.26C85.94 271.91 85.3 273.48 84.66 275.05C84.99 273.05 85.53 269.05 85.54 268.67C85.4734 264.004 84.2134 259.432 81.88 255.39C81.8915 254.868 81.8581 254.346 81.78 253.83C81.6662 252.845 81.3445 251.896 80.8362 251.045C80.3279 250.193 79.6446 249.46 78.8316 248.893C78.0185 248.326 77.0942 247.937 76.1199 247.754C75.1456 247.571 74.1436 247.597 73.18 247.83C67.44 249.36 63.8 259.44 63.53 264.74C63.53 265.05 63.71 268.46 63.88 270.61C63.59 269.36 63.32 268.14 63.01 266.86C62.41 264.32 61.73 261.86 61.01 259.1C60.61 257.8 60.22 256.49 59.82 255.17C59.42 253.85 58.89 252.5 58.43 251.17C57.29 248.07 55.99 244.97 54.61 241.89C56.83 241.36 64.7 239.35 67.86 236.89C71.02 234.43 74.34 230.53 74.31 226.33C74.3419 225.341 74.164 224.357 73.7878 223.442C73.4117 222.527 72.846 221.703 72.1279 221.022C71.4098 220.342 70.5556 219.822 69.6217 219.495C68.6879 219.169 67.6955 219.045 66.71 219.13C60.8 219.77 55.71 229.18 54.6 234.38C54.54 234.71 54.19 238.52 54.04 240.62C53.19 238.77 52.36 236.92 51.44 235.08C48.8 229.76 45.97 224.46 43.16 219.16C42.3 217.54 41.46 215.91 40.61 214.29C41.41 214.11 50.81 211.92 54.34 209.21C57.49 206.8 60.82 202.85 60.79 198.66C60.8218 197.672 60.6441 196.689 60.2685 195.775C59.893 194.861 59.3282 194.036 58.6112 193.356C57.8942 192.676 57.0413 192.156 56.1086 191.829C55.176 191.502 54.1847 191.376 53.2 191.46C47.29 192.1 42.2 201.46 41.09 206.71C41.01 207.1 40.52 212.59 40.46 213.99C38.6 210.41 36.78 206.82 35.12 203.21C32.8654 198.34 30.928 193.33 29.32 188.21C29.69 188.13 39.51 185.9 43.14 183.12C46.28 180.71 49.62 176.76 49.59 172.56C49.6219 171.571 49.444 170.587 49.0679 169.672C48.6917 168.757 48.126 167.933 47.4079 167.252C46.6897 166.572 45.8356 166.052 44.9017 165.725C43.9679 165.399 42.9755 165.275 41.99 165.36C36.09 166.01 30.99 175.42 29.89 180.61C29.8 181.02 29.27 186.93 29.25 188.01C29.16 187.71 29.03 187.41 28.95 187.12C27.4805 181.947 26.4765 176.652 25.95 171.3C25.62 168.35 25.47 165.51 25.38 162.74C27.25 162.52 35.8 161.38 39.33 159.24C42.86 157.1 46.47 153.63 46.9 149.45C47.0416 148.471 46.9742 147.474 46.7022 146.523C46.4303 145.572 45.9599 144.689 45.3222 143.934C44.6844 143.178 43.8937 142.566 43.0022 142.138C42.1107 141.709 41.1386 141.475 40.15 141.45C34.15 141.45 28.07 150.23 26.44 155.28C26.35 155.56 25.75 158.45 25.35 160.56C25.35 159.31 25.28 158.02 25.29 156.82C25.29 152.33 25.58 148.22 25.86 144.57C26.04 142.5 26.24 140.64 26.45 138.89C28.17 137.71 35.04 132.89 37.15 129.39C39.26 125.89 40.9 121.12 39.36 117.22C39.0358 116.285 38.5169 115.429 37.8377 114.709C37.1584 113.989 36.3342 113.421 35.4194 113.043C34.5047 112.665 33.5201 112.486 32.5308 112.516C31.5414 112.547 30.5698 112.786 29.68 113.22C24.36 116 23 126.63 23.85 131.86C23.93 132.31 25.92 139.25 26.01 139.19L26.11 139.12C25.88 140.8 25.65 142.6 25.44 144.57C25.08 148.21 24.7 152.33 24.6 156.84C24.4458 161.7 24.5794 166.565 25 171.41C25.4167 176.84 26.3203 182.222 27.7 187.49C27.7 187.55 27.7 187.61 27.76 187.68C26.82 186.21 24.07 182.19 23.82 181.9C20.35 177.9 11.28 172.18 5.81999 174.5C4.91807 174.907 4.11277 175.501 3.45721 176.243C2.80165 176.984 2.31073 177.856 2.01684 178.801C1.72295 179.746 1.63278 180.742 1.75226 181.725C1.87173 182.707 2.19816 183.653 2.70999 184.5C4.66999 188.17 9.50999 190 13.43 190.56Z" fill="#263238"/>
<path d="M115.33 162.64C115.42 162.7 117.22 155.71 117.33 155.25C118.06 150 116.38 139.41 111.03 136.83C110.13 136.42 109.153 136.205 108.164 136.2C107.176 136.195 106.197 136.4 105.293 136.8C104.388 137.201 103.579 137.788 102.919 138.524C102.258 139.26 101.761 140.128 101.46 141.07C100.03 145.01 101.85 149.84 104 153.17C106.49 157.08 115.32 162.63 115.33 162.64Z" fill="#263238"/>
<path d="M271.18 393.86C273.54 394.86 279.31 394.76 279.32 394.76C279.33 394.76 278.08 390.98 277.97 390.76C276.7 388.11 272.69 383.76 269.43 384.17C268.891 384.258 268.376 384.459 267.92 384.76C267.463 385.06 267.075 385.453 266.781 385.914C266.486 386.374 266.292 386.891 266.211 387.432C266.13 387.972 266.164 388.523 266.31 389.05C266.85 391.3 269.17 393 271.18 393.86Z" fill="#263238"/>
<path d="M273.17 410.59C275.62 410.94 280.78 409.45 281.17 409.33C282.017 412.279 283.059 415.169 284.29 417.98C285 419.62 285.77 421.25 286.55 422.88C286.08 422.19 285.66 421.58 285.55 421.5C283.63 419.28 278.61 416.11 275.55 417.4C275.052 417.627 274.608 417.956 274.246 418.365C273.885 418.775 273.613 419.257 273.45 419.779C273.287 420.3 273.235 420.851 273.299 421.394C273.363 421.937 273.54 422.46 273.82 422.93C274.94 424.93 277.62 425.93 279.82 426.29C282.02 426.65 286.44 425.42 287.61 425.1L288.53 426.96C290.02 429.96 291.53 432.89 292.91 435.84C293.4 436.84 293.84 437.92 294.29 438.96C293.87 438.35 293.51 437.83 293.45 437.76C291.53 435.54 286.51 432.38 283.45 433.66C282.954 433.888 282.51 434.217 282.15 434.627C281.789 435.037 281.518 435.519 281.355 436.04C281.192 436.561 281.14 437.111 281.203 437.654C281.266 438.196 281.442 438.72 281.72 439.19C282.84 441.19 285.52 442.24 287.72 442.55C289.92 442.86 293.92 441.8 295.3 441.42C295.73 442.5 296.16 443.58 296.52 444.64C296.75 445.37 297.03 446.06 297.22 446.81C297.41 447.56 297.63 448.28 297.83 449C298.17 450.41 298.52 451.85 298.83 453.23C299.04 454.23 299.22 455.11 299.41 456.03C298.94 455.03 297.97 453.03 297.87 452.82C296.3 450.33 291.82 446.44 288.63 447.25C288.105 447.401 287.617 447.66 287.198 448.012C286.78 448.363 286.44 448.798 286.2 449.29C285.961 449.781 285.827 450.317 285.808 450.863C285.789 451.409 285.885 451.953 286.09 452.46C286.88 454.64 289.38 456.05 291.48 456.69C293.79 457.39 298.91 456.75 299.54 456.69C299.85 458.22 300.13 459.69 300.38 461.12C300.56 462.17 300.73 463.17 300.89 464.12H302.89C302.7 463.05 302.49 461.93 302.26 460.75C301.95 459.2 301.59 457.55 301.21 455.85C302.753 455.239 304.256 454.531 305.71 453.73C307.4 455.56 311.71 457.73 312.27 457.96C311.68 459.41 311.1 460.81 310.52 462.12L309.64 464.12H311.8C311.98 463.71 312.15 463.31 312.32 462.88C312.92 461.41 313.54 459.88 314.15 458.21C314.77 458.34 319.84 459.37 322.2 458.84C324.34 458.35 326.93 457.14 327.89 455.03C328.133 454.539 328.269 454.003 328.291 453.456C328.313 452.909 328.22 452.364 328.017 451.856C327.814 451.347 327.507 450.887 327.114 450.505C326.722 450.124 326.254 449.829 325.74 449.64C322.62 448.64 317.86 452.14 316.12 454.5C316.01 454.64 315.12 456.28 314.48 457.32C314.73 456.66 314.98 456.02 315.23 455.32C315.73 453.96 316.18 452.59 316.68 451.12C316.89 450.4 317.11 449.68 317.33 448.94C317.55 448.2 317.72 447.43 317.92 446.66C318.34 444.88 318.68 443.06 318.99 441.21C320.18 441.64 324.42 443.12 326.62 442.97C328.82 442.82 331.56 441.97 332.83 440.06C333.143 439.613 333.359 439.104 333.463 438.568C333.567 438.032 333.557 437.48 333.433 436.948C333.31 436.416 333.075 435.916 332.746 435.48C332.416 435.045 331.998 434.683 331.52 434.42C328.59 432.91 323.35 435.69 321.27 437.76C321.14 437.89 319.81 439.55 319.1 440.47C319.27 439.36 319.45 438.25 319.59 437.12C320 433.86 320.31 430.54 320.59 427.23C320.69 426.23 320.8 425.23 320.9 424.23C321.33 424.39 326.33 426.23 328.8 426.08C330.99 425.93 333.73 425.08 335 423.18C335.314 422.732 335.529 422.223 335.633 421.686C335.737 421.149 335.727 420.596 335.604 420.063C335.48 419.53 335.246 419.029 334.916 418.593C334.587 418.157 334.169 417.794 333.69 417.53C330.77 416.03 325.52 418.81 323.44 420.88C323.28 421.04 321.38 423.42 320.92 424.05C321.16 421.83 321.41 419.61 321.75 417.44C322.198 414.506 322.833 411.603 323.65 408.75C323.84 408.83 329.06 410.8 331.59 410.62C333.78 410.47 336.52 409.62 337.79 407.71C338.103 407.263 338.319 406.754 338.423 406.218C338.527 405.682 338.517 405.13 338.393 404.598C338.27 404.066 338.035 403.566 337.706 403.13C337.376 402.695 336.959 402.333 336.48 402.07C333.56 400.56 328.31 403.34 326.23 405.41C326.07 405.58 324.02 408.14 323.68 408.63C323.73 408.47 323.76 408.29 323.81 408.13C324.708 405.293 325.859 402.541 327.25 399.91C328 398.44 328.8 397.08 329.6 395.78C330.54 396.25 334.83 398.33 337.12 398.42C339.41 398.51 342.12 398.01 343.6 396.22C343.963 395.81 344.234 395.328 344.398 394.805C344.561 394.283 344.613 393.732 344.548 393.188C344.484 392.644 344.306 392.12 344.025 391.65C343.745 391.18 343.368 390.774 342.92 390.46C340.18 388.64 334.67 390.83 332.37 392.66C332.24 392.76 331.09 393.91 330.25 394.76C330.63 394.18 331 393.57 331.37 393.02C332.74 390.95 334.13 389.14 335.37 387.54C336.08 386.64 336.74 385.84 337.37 385.09C338.53 385.09 343.18 384.93 345.22 383.98C347.26 383.03 349.48 381.3 349.96 379.03C350.091 378.499 350.109 377.947 350.013 377.409C349.916 376.871 349.707 376.359 349.4 375.907C349.092 375.455 348.693 375.073 348.228 374.786C347.762 374.498 347.242 374.313 346.7 374.24C343.43 373.88 339.54 378.37 338.35 381.05C338.24 381.28 337.04 385.1 337.1 385.1H337.17C336.55 385.8 335.9 386.56 335.17 387.41C333.89 388.98 332.46 390.77 331.03 392.82C329.468 395.011 328.035 397.292 326.74 399.65C325.277 402.287 324.049 405.048 323.07 407.9C323.076 407.936 323.076 407.974 323.07 408.01C323.07 407.01 323.07 404.35 323.07 404.14C322.69 401.23 320.25 395.82 317.02 395.22C316.48 395.135 315.927 395.165 315.399 395.307C314.871 395.45 314.379 395.702 313.954 396.047C313.53 396.392 313.183 396.823 312.936 397.311C312.689 397.799 312.547 398.334 312.52 398.88C312.33 401.2 314.01 403.52 315.65 404.98C317.5 406.63 322.65 408.22 323.03 408.35C322.112 411.279 321.387 414.266 320.86 417.29C320.55 419.05 320.29 420.83 320.05 422.62C320.05 421.79 320.05 421.04 320.05 420.94C319.67 418.03 317.23 412.62 313.99 412.02C313.45 411.935 312.898 411.965 312.371 412.108C311.843 412.25 311.352 412.502 310.928 412.848C310.504 413.193 310.158 413.624 309.912 414.112C309.666 414.6 309.526 415.134 309.5 415.68C309.31 418 310.99 420.31 312.62 421.78C314.25 423.25 318.62 424.71 319.78 425.08C319.69 425.77 319.6 426.45 319.52 427.14C319.13 430.44 318.75 433.74 318.27 436.96C318.11 438.1 317.9 439.21 317.7 440.32C317.7 439.58 317.7 438.96 317.7 438.87C317.33 435.95 314.88 430.54 311.7 429.94C311.16 429.857 310.608 429.888 310.08 430.032C309.552 430.176 309.061 430.429 308.637 430.775C308.214 431.121 307.868 431.552 307.622 432.041C307.376 432.529 307.236 433.064 307.21 433.61C307.02 435.92 308.7 438.24 310.33 439.7C311.96 441.16 315.91 442.49 317.28 442.93C317.04 444.07 316.8 445.21 316.52 446.29C316.31 447.03 316.16 447.76 315.9 448.49L315.21 450.65C314.71 452.01 314.21 453.42 313.69 454.73C313.34 455.65 312.99 456.51 312.69 457.39C312.87 456.26 313.17 454.04 313.17 453.85C313.147 451.269 312.458 448.737 311.17 446.5C311.175 446.212 311.155 445.924 311.11 445.64C311.043 445.097 310.863 444.574 310.58 444.105C310.297 443.637 309.919 443.233 309.47 442.921C309.021 442.609 308.511 442.394 307.973 442.293C307.435 442.191 306.882 442.204 306.35 442.33C303.17 443.18 301.15 448.76 301 451.69C301 451.87 301.11 453.76 301.2 454.95C301.04 454.26 300.89 453.58 300.72 452.87C300.38 451.47 300.01 450.07 299.61 448.57C299.4 447.85 299.18 447.13 298.95 446.4C298.72 445.67 298.44 444.92 298.19 444.17C297.56 442.45 296.84 440.74 296.07 439.03C297.3 438.74 301.66 437.63 303.41 436.28C305.16 434.93 306.99 432.76 306.98 430.44C306.996 429.892 306.896 429.347 306.687 428.841C306.478 428.334 306.165 427.878 305.768 427.5C305.371 427.123 304.898 426.833 304.382 426.651C303.865 426.468 303.316 426.396 302.77 426.44C299.5 426.8 296.66 432.01 296.07 434.89C296.07 435.07 295.84 437.18 295.75 438.34C295.29 437.34 294.82 436.29 294.32 435.27C292.86 432.33 291.32 429.39 289.73 426.46C289.25 425.56 288.79 424.66 288.32 423.76C288.76 423.66 293.96 422.45 295.92 420.95C297.66 419.61 299.51 417.42 299.5 415.1C299.517 414.552 299.419 414.006 299.21 413.499C299.002 412.992 298.689 412.534 298.291 412.157C297.894 411.779 297.421 411.489 296.904 411.307C296.386 411.125 295.836 411.055 295.29 411.1C292.02 411.45 289.18 416.66 288.58 419.54C288.58 419.76 288.27 422.8 288.23 423.54C287.23 421.54 286.23 419.54 285.28 417.54C284.027 414.848 282.954 412.075 282.07 409.24C282.27 409.19 287.71 407.96 289.72 406.42C291.46 405.08 293.31 402.9 293.29 400.57C293.307 400.022 293.209 399.476 293 398.969C292.792 398.462 292.479 398.004 292.081 397.627C291.684 397.249 291.211 396.959 290.694 396.777C290.176 396.595 289.626 396.525 289.08 396.57C285.81 396.92 282.97 402.13 282.38 405.01C282.38 405.24 282.04 408.51 282.03 409.11C281.98 408.94 281.91 408.78 281.86 408.61C281.042 405.746 280.483 402.814 280.19 399.85C280.01 398.22 279.93 396.65 279.88 395.12C280.88 394.99 285.65 394.36 287.61 393.17C289.57 391.98 291.56 390.07 291.8 387.76C291.875 387.218 291.834 386.667 291.682 386.142C291.53 385.617 291.269 385.13 290.916 384.712C290.564 384.294 290.127 383.956 289.635 383.717C289.143 383.479 288.606 383.347 288.06 383.33C284.76 383.33 281.37 388.19 280.46 390.99C280.41 391.14 280.08 392.74 279.86 393.91C279.86 393.22 279.86 392.51 279.86 391.84C279.86 389.35 280.02 387.08 280.18 385.06C280.27 383.91 280.39 382.88 280.5 381.91C281.45 381.26 285.26 378.57 286.43 376.65C287.6 374.73 288.51 372.07 287.65 369.91C287.467 369.395 287.178 368.924 286.8 368.528C286.423 368.132 285.967 367.821 285.461 367.613C284.956 367.405 284.412 367.307 283.865 367.323C283.319 367.34 282.782 367.472 282.29 367.71C279.37 369.22 278.6 375.1 279.08 378C279.13 378.25 280.23 382.09 280.28 382.06H280.34C280.21 382.99 280.08 383.99 279.96 385.06C279.76 387.06 279.56 389.36 279.5 391.86C279.402 394.548 279.466 397.24 279.69 399.92C279.922 402.928 280.421 405.91 281.18 408.83V408.93C280.66 408.12 279.18 405.93 279 405.74C277.08 403.51 272.06 400.35 269 401.64C268.504 401.868 268.06 402.197 267.699 402.607C267.339 403.017 267.068 403.499 266.905 404.02C266.742 404.541 266.69 405.091 266.753 405.634C266.816 406.176 266.992 406.7 267.27 407.17C268.32 409.26 271 410.27 273.17 410.59Z" fill="#263238"/>
<path d="M329.6 395.13C329.6 395.13 330.6 391.29 330.69 391.04C331.09 388.13 330.16 382.26 327.2 380.83C326.701 380.607 326.161 380.491 325.614 380.49C325.067 380.489 324.526 380.603 324.027 380.825C323.527 381.046 323.079 381.371 322.713 381.776C322.347 382.182 322.07 382.66 321.9 383.18C321.11 385.36 322.11 388.04 323.31 389.88C324.71 392.05 329.6 395.12 329.6 395.13Z" fill="#263238"/>
<path d="M244.85 185.26H53.84C47.3285 185.26 42.05 190.539 42.05 197.05V452.31C42.05 458.821 47.3285 464.1 53.84 464.1H244.85C251.361 464.1 256.64 458.821 256.64 452.31V197.05C256.64 190.539 251.361 185.26 244.85 185.26Z" fill="#263238"/>
<path d="M246.37 201.75H52.32V450.87H246.37V201.75Z" fill="white" stroke="#263238" stroke-linecap="round" stroke-linejoin="round"/>
<path d="M109.94 239.06H188.75" stroke="#263238" stroke-linecap="round" stroke-linejoin="round"/>
<path d="M199.03 273.01H226.34" stroke="#263238" stroke-linecap="round" stroke-linejoin="round"/>
<path d="M120.46 273.01H192.53" stroke="#263238" stroke-linecap="round" stroke-linejoin="round"/>
<path d="M86.87 273.01H115.59" stroke="#263238" stroke-linecap="round" stroke-linejoin="round"/>
<path d="M72.35 273.01H79.83" stroke="#263238" stroke-linecap="round" stroke-linejoin="round"/>
<path d="M199.57 299.68H226.34" stroke="#263238" stroke-linecap="round" stroke-linejoin="round"/>
<path d="M155.14 299.68H194.16" stroke="#263238" stroke-linecap="round" stroke-linejoin="round"/>
<path d="M88.5 299.68H149.18" stroke="#263238" stroke-linecap="round" stroke-linejoin="round"/>
<path d="M72.35 299.68H81.45" stroke="#263238" stroke-linecap="round" stroke-linejoin="round"/>
<path d="M184.4 326.36H226.34" stroke="#263238" stroke-linecap="round" stroke-linejoin="round"/>
<path d="M94.46 326.36H176.82" stroke="#263238" stroke-linecap="round" stroke-linejoin="round"/>
<path d="M72.35 326.36H87.95" stroke="#263238" stroke-linecap="round" stroke-linejoin="round"/>
<path d="M216.37 353.03H226.34" stroke="#263238" stroke-linecap="round" stroke-linejoin="round"/>
<path d="M100.96 353.03H206.08" stroke="#263238" stroke-linecap="round" stroke-linejoin="round"/>
<path d="M72.35 353.03H93.37" stroke="#263238" stroke-linecap="round" stroke-linejoin="round"/>
<path d="M214.75 379.71H226.34" stroke="#263238" stroke-linecap="round" stroke-linejoin="round"/>
<path d="M124.26 379.71H206.08" stroke="#263238" stroke-linecap="round" stroke-linejoin="round"/>
<path d="M72.35 379.71H117.21" stroke="#263238" stroke-linecap="round" stroke-linejoin="round"/>
<path d="M174.11 406.38H226.34" stroke="#263238" stroke-linecap="round" stroke-linejoin="round"/>
<path d="M72.35 406.38H163.81" stroke="#263238" stroke-linecap="round" stroke-linejoin="round"/>
<path d="M174.9 179.63C173.951 179.621 173.023 179.354 172.214 178.859C171.405 178.364 170.746 177.658 170.306 176.817C169.867 175.976 169.664 175.032 169.719 174.085C169.775 173.138 170.086 172.224 170.62 171.44C172.368 168.644 173.333 165.429 173.412 162.133C173.491 158.836 172.683 155.579 171.071 152.702C169.459 149.825 167.104 147.434 164.251 145.78C161.398 144.126 158.153 143.27 154.855 143.301C151.558 143.332 148.329 144.249 145.508 145.956C142.686 147.663 140.376 150.097 138.818 153.003C137.261 155.91 136.513 159.182 136.654 162.476C136.795 165.771 137.82 168.967 139.62 171.73C140.104 172.52 140.367 173.425 140.383 174.351C140.399 175.277 140.167 176.19 139.711 176.996C139.255 177.802 138.591 178.471 137.789 178.935C136.987 179.398 136.076 179.638 135.15 179.63H103.15L111.79 204.45H198.2L206.84 179.63H174.9ZM155 169.06C153.725 169.062 152.479 168.686 151.418 167.979C150.358 167.272 149.531 166.266 149.042 165.089C148.553 163.912 148.425 162.616 148.673 161.366C148.921 160.116 149.535 158.967 150.436 158.066C151.337 157.165 152.486 156.551 153.736 156.303C154.986 156.055 156.282 156.183 157.459 156.672C158.636 157.161 159.642 157.988 160.349 159.048C161.056 160.109 161.432 161.355 161.43 162.63C161.43 164.335 160.753 165.971 159.547 167.177C158.341 168.383 156.705 169.06 155 169.06Z" fill="white" stroke="#263238" stroke-linecap="round" stroke-linejoin="round"/>
<path d="M134.915 430.284C144.001 422.035 144.678 407.982 136.428 398.897C128.179 389.812 114.126 389.134 105.041 397.384C95.9559 405.633 95.2784 419.686 103.528 428.771C111.778 437.856 125.83 438.534 134.915 430.284Z" fill="#263238" stroke="#263238" stroke-linecap="round" stroke-linejoin="round"/>
<path d="M121.58 423.14C120.867 423.134 120.164 422.976 119.517 422.676C118.87 422.376 118.295 421.941 117.83 421.4L108.08 410C107.593 409.513 107.213 408.93 106.962 408.289C106.711 407.648 106.595 406.962 106.622 406.274C106.649 405.586 106.817 404.91 107.117 404.291C107.417 403.671 107.841 403.119 108.364 402.671C108.887 402.223 109.496 401.888 110.155 401.686C110.813 401.485 111.506 401.421 112.19 401.5C112.874 401.579 113.534 401.798 114.13 402.144C114.725 402.49 115.243 402.955 115.65 403.51L121.65 410.57L141.65 388.25C142.073 387.711 142.601 387.264 143.204 386.938C143.806 386.612 144.469 386.413 145.151 386.353C145.834 386.294 146.521 386.375 147.171 386.592C147.82 386.809 148.419 387.158 148.928 387.616C149.437 388.074 149.847 388.631 150.132 389.254C150.417 389.877 150.571 390.552 150.584 391.237C150.598 391.922 150.47 392.602 150.21 393.236C149.949 393.869 149.561 394.443 149.07 394.92L125.23 421.47C124.761 421.989 124.189 422.404 123.55 422.689C122.911 422.973 122.219 423.12 121.52 423.12L121.58 423.14Z" fill="#1FC55C"/>
<path d="M145.46 388.11C146.135 388.107 146.797 388.301 147.364 388.668C147.931 389.034 148.379 389.558 148.654 390.175C148.928 390.792 149.017 391.476 148.91 392.142C148.803 392.809 148.504 393.43 148.05 393.93L124.21 420.48C123.884 420.845 123.485 421.137 123.039 421.337C122.593 421.537 122.109 421.64 121.62 421.64C121.123 421.637 120.632 421.526 120.182 421.315C119.731 421.105 119.331 420.799 119.01 420.42L109.21 409C108.901 408.654 108.665 408.249 108.514 407.81C108.364 407.371 108.302 406.906 108.333 406.443C108.364 405.98 108.488 405.528 108.696 405.113C108.904 404.699 109.193 404.329 109.545 404.027C109.897 403.726 110.307 403.497 110.748 403.355C111.19 403.213 111.656 403.161 112.118 403.201C112.581 403.241 113.03 403.373 113.441 403.59C113.852 403.806 114.215 404.102 114.51 404.46L121.68 412.82L142.86 389.23C143.187 388.864 143.587 388.571 144.036 388.371C144.484 388.171 144.969 388.069 145.46 388.07M145.46 385.07C144.55 385.072 143.649 385.264 142.818 385.634C141.986 386.005 141.241 386.545 140.63 387.22L121.73 408.27L116.79 402.51C116.241 401.846 115.564 401.297 114.801 400.897C114.037 400.497 113.201 400.253 112.342 400.179C111.483 400.106 110.618 400.204 109.797 400.469C108.977 400.733 108.217 401.159 107.563 401.72C106.908 402.281 106.372 402.967 105.986 403.738C105.6 404.509 105.371 405.349 105.313 406.209C105.255 407.07 105.369 407.933 105.648 408.748C105.928 409.564 106.367 410.316 106.94 410.96L116.69 422.34C117.292 423.039 118.036 423.602 118.872 423.991C119.708 424.381 120.618 424.588 121.54 424.6H121.62C122.529 424.601 123.429 424.41 124.26 424.04C125.09 423.669 125.833 423.127 126.44 422.45L150.29 395.9C151.125 394.966 151.671 393.81 151.865 392.572C152.058 391.334 151.889 390.067 151.379 388.922C150.868 387.778 150.038 386.806 148.988 386.122C147.938 385.439 146.713 385.073 145.46 385.07Z" fill="#263238"/>
<path d="M154.48 156.19V94.11" stroke="#263238" stroke-linecap="round" stroke-linejoin="round"/>
<path d="M151.64 81.68V87.47L149.33 91.47C149.329 92.1112 149.454 92.7464 149.699 93.339C149.944 93.9317 150.303 94.4702 150.756 94.9236C151.21 95.377 151.748 95.7364 152.341 95.9812C152.934 96.226 153.569 96.3513 154.21 96.35C154.85 96.35 155.484 96.2237 156.076 95.9783C156.667 95.733 157.205 95.3733 157.657 94.9201C158.109 94.4668 158.468 93.9287 158.712 93.3367C158.956 92.7447 159.081 92.1104 159.08 91.47V87.47" stroke="#263238" stroke-width="3" stroke-linecap="round" stroke-linejoin="round"/>
<path d="M146.61 81.41H156.37V70.57H146.61V81.41Z" fill="white" stroke="#263238" stroke-linecap="round" stroke-linejoin="round"/>
<path d="M143.01 77.79H159.99V56.02H143.01V77.79Z" fill="white" stroke="#263238" stroke-linecap="round" stroke-linejoin="round"/>
<path d="M137.95 73.64H164.87V66.96H137.95V73.64Z" fill="white" stroke="#263238" stroke-linecap="round" stroke-linejoin="round"/>
<path d="M151.49 66.95H155.35L160.8 73.13L160.23 73.64H157.39L151.49 66.95Z" fill="#263238"/>
<path d="M162.75 66.95L164.87 69.34V73.64H164.8L158.9 66.95H162.75Z" fill="#263238"/>
<path d="M144.09 66.95H147.94L153.39 73.13L152.82 73.64H149.98L144.09 66.95Z" fill="#263238"/>
<path d="M137.94 68.39V66.95H140.53L145.98 73.13L145.41 73.64H142.57L137.94 68.39Z" fill="#263238"/>
<path d="M151.88 55.64V42.54" stroke="#263238" stroke-width="2" stroke-linecap="round" stroke-linejoin="round"/>
<path d="M-25.53 42.21H158.68V34.36L123.07 19.28H-25.53" stroke="#263238" stroke-width="2" stroke-linecap="round" stroke-linejoin="round"/>
<path d="M123.07 42.21V19.28L99.54 42.21V19.28L123.07 42.21Z" stroke="#263238" stroke-width="2" stroke-linecap="round" stroke-linejoin="round"/>
<path d="M99.57 42.21V19.28L76.03 42.21V19.28L99.57 42.21Z" stroke="#263238" stroke-width="2" stroke-linecap="round" stroke-linejoin="round"/>
<path d="M76.06 42.21V19.28L52.53 42.21V19.28L76.06 42.21Z" stroke="#263238" stroke-width="2" stroke-linecap="round" stroke-linejoin="round"/>
<path d="M52.56 42.21V19.28L29.02 42.21V19.28L52.56 42.21Z" stroke="#263238" stroke-width="2" stroke-linecap="round" stroke-linejoin="round"/>
<path d="M29.05 42.21V19.28L5.51996 42.21V19.28L29.05 42.21Z" stroke="#263238" stroke-width="2" stroke-linecap="round" stroke-linejoin="round"/>
<path d="M5.54995 42.21V19.28L-17.9901 42.21V19.28L5.54995 42.21Z" stroke="#263238" stroke-width="2" stroke-linecap="round" stroke-linejoin="round"/>
<path d="M394.92 275.43L382.54 309.6L381.75 309.4L374.75 304.33L372.16 306.88L374.88 320.25C374.88 320.25 385.88 325.91 387.88 325.54C389.371 325.233 390.836 324.808 392.26 324.27C392.26 324.27 399.18 276.71 399.36 275.79C399.54 274.87 398.38 272.33 394.92 275.43Z" fill="white" stroke="#263238" stroke-linecap="round" stroke-linejoin="round"/>
<path d="M398.26 454C398.26 454 394.8 459.27 391.98 461.49C389.16 463.71 382.54 466.91 380.7 468.4C378.86 469.89 379.7 471.22 380.31 471.86C380.92 472.5 389.46 472.97 394.09 472.98C398.72 472.99 407.09 470.98 407.09 470.98C407.09 470.98 410.79 471.57 411.73 471.1C412.67 470.63 413.26 469.58 413.41 467.94C413.56 466.3 413.02 457.04 413.02 457.04L398.26 454Z" fill="white" stroke="#263238" stroke-linecap="round" stroke-linejoin="round"/>
<path d="M408.2 468.53C404.6 469.11 403.89 469.93 396.91 470.97C391.17 471.83 382.66 470.77 379.57 470.22C379.576 470.526 379.645 470.828 379.772 471.107C379.899 471.385 380.082 471.635 380.31 471.84C380.94 472.48 389.46 472.95 394.09 472.96C398.72 472.97 407.09 470.96 407.09 470.96C407.09 470.96 410.79 471.55 411.73 471.08C412.67 470.61 413.25 469.57 413.4 467.96C411.657 468.05 409.921 468.24 408.2 468.53Z" fill="#263238" stroke="#263238" stroke-linecap="round" stroke-linejoin="round"/>
<path d="M401.27 457.87C401.27 457.87 397.27 456.09 394.57 459.09" stroke="#263238" stroke-width="2" stroke-linecap="round" stroke-linejoin="round"/>
<path d="M396.71 456.36C396.71 456.36 399.79 458.77 399.38 461.36" stroke="#263238" stroke-width="2" stroke-linecap="round" stroke-linejoin="round"/>
<path d="M398.28 460.65C398.28 460.65 395.13 459.19 392.99 461.65" stroke="#263238" stroke-width="2" stroke-linecap="round" stroke-linejoin="round"/>
<path d="M394.69 459.42C394.69 459.42 397.11 461.42 396.77 463.52" stroke="#263238" stroke-width="2" stroke-linecap="round" stroke-linejoin="round"/>
<path d="M396 463.47C396 463.47 393.09 462.1 388.51 463.72" stroke="#263238" stroke-width="2" stroke-linecap="round" stroke-linejoin="round"/>
<path d="M392.32 462.22C392.539 462.441 392.704 462.708 392.804 463.002C392.905 463.296 392.937 463.609 392.898 463.917C392.86 464.225 392.751 464.521 392.582 464.781C392.413 465.042 392.186 465.26 391.92 465.42" stroke="#263238" stroke-width="2" stroke-linecap="round" stroke-linejoin="round"/>
<path d="M421.07 459C421.07 459 419.36 465.12 418.75 466C418.14 466.88 414.06 472 414.02 473.79C413.98 475.58 415.29 476.96 418.54 477.7C421.79 478.44 426.83 478.7 430.85 476.87C434.87 475.04 436.68 474.44 437.69 471.64C438.7 468.84 438.03 459.45 438.03 459.45C438.03 459.45 425.48 450.2 421.07 459Z" fill="white" stroke="#263238" stroke-linecap="round" stroke-linejoin="round"/>
<path d="M437.69 471.61C438.079 470.091 438.261 468.527 438.23 466.96C437.39 468.295 436.447 469.562 435.41 470.75C433.41 472.94 430.03 475.37 423.51 475.85C420.15 476.142 416.808 475.116 414.19 472.99C414.1 473.238 414.043 473.497 414.02 473.76C414.02 475.59 415.29 476.93 418.54 477.67C421.79 478.41 426.83 478.67 430.85 476.84C434.87 475.01 436.68 474.41 437.69 471.61Z" fill="#263238" stroke="#263238" stroke-linecap="round" stroke-linejoin="round"/>
<path d="M429.9 456.92C429.9 456.92 424.42 456.65 422.7 459.92" stroke="#263238" stroke-width="2" stroke-linecap="round" stroke-linejoin="round"/>
<path d="M423.9 457C423.9 457 428.61 458 429.33 460.24" stroke="#263238" stroke-width="2" stroke-linecap="round" stroke-linejoin="round"/>
<path d="M428.81 460.92C428.81 460.92 423.32 460.66 421.6 463.92" stroke="#263238" stroke-width="2" stroke-linecap="round" stroke-linejoin="round"/>
<path d="M422.8 461C422.8 461 427.51 462 428.24 464.24" stroke="#263238" stroke-width="2" stroke-linecap="round" stroke-linejoin="round"/>
<path d="M427.72 464.92C427.72 464.92 422.23 464.66 420.51 467.92" stroke="#263238" stroke-width="2" stroke-linecap="round" stroke-linejoin="round"/>
<path d="M421.71 465C421.71 465 426.42 466 427.14 468.24" stroke="#263238" stroke-width="2" stroke-linecap="round" stroke-linejoin="round"/>
<path d="M388.26 338.86C388.26 338.86 390.36 370.67 391.26 379.6C392.16 388.53 394.35 409.12 394.53 409.67C394.71 410.22 395.26 417.5 395.26 417.5C395.26 417.5 394.72 420.42 395.45 426.8C396.18 433.18 398.36 446.48 398.36 446.48C398.36 446.48 396.54 446.84 396.72 448.3C396.9 449.76 397.63 453.77 397.63 453.77C397.63 453.77 404.56 456.13 406.56 456.32C408.56 456.51 412.56 456.32 412.56 456.32C412.56 456.32 414.2 453.58 414.02 452.13C413.642 450.339 413.154 448.572 412.56 446.84L413.47 436.09L415 392.18C415 392.18 420.65 435 421.56 438.09C422.47 441.18 423.38 446.09 423.38 446.09C423.38 446.09 421.56 447.55 421.56 448.46C421.56 449.37 421.93 455.75 421.93 455.75C421.93 455.75 425.57 452.83 429.03 453.38C432.49 453.93 438.15 457.94 438.15 457.94C438.374 456.092 438.738 454.263 439.24 452.47C439.97 450.1 438.51 444.09 438.14 442.47C437.721 440.615 437.66 438.698 437.96 436.82C438.33 435.18 438.51 430.08 438.69 428.44C438.87 426.8 438.51 385.98 438.51 385.98L442.23 339.23L389.23 337.59L388.26 338.86Z" fill="#263238" stroke="#263238" stroke-linecap="round" stroke-linejoin="round"/>
<path d="M407.68 260.44C407.68 260.44 396.42 265.6 395.68 267.44C394.94 269.28 391.14 306.54 388.95 321.44C386.76 336.34 387.7 340.3 387.7 340.3C387.7 340.3 390.05 345.15 413.04 344.36C436.03 343.57 444.17 340.14 444.48 338.11C444.79 336.08 445.11 338.65 445.11 337.24C445.11 335.83 446.83 269.36 445.11 265.29C443.39 261.22 433.69 254.5 430.87 254.19C428.05 253.88 407.68 260.44 407.68 260.44Z" fill="#1FC55C" stroke="#263238" stroke-linecap="round" stroke-linejoin="round"/>
<path d="M426.27 257.4C419.39 259.09 407.68 262.87 407.68 262.87C407.68 262.87 396.42 268.03 395.68 269.87C395.423 270.899 395.239 271.945 395.13 273C400.13 270.16 411.82 263.56 415.76 262.32C418.969 261.33 422.269 260.66 425.61 260.32L438.62 269L444.08 269.14C444.08 269.14 431.83 258.35 428.37 257.42C427.675 257.311 426.967 257.304 426.27 257.4Z" fill="white" stroke="#263238" stroke-linecap="round" stroke-linejoin="round"/>
<path d="M388.94 323.69V323.87C388.56 326.46 388.3 328.79 388.11 330.92C399.655 333.253 411.445 334.146 423.21 333.58C435.21 332.85 441.87 332.41 445.26 332.19C445.26 330.14 445.35 327.76 445.4 325.13C437.38 326 406.08 328.71 388.94 323.69Z" fill="white" stroke="#263238" stroke-linecap="round" stroke-linejoin="round"/>
<path d="M397.16 336.16C397.24 337.58 397.36 338.96 397.51 340.3" stroke="#263238" stroke-miterlimit="10"/>
<path d="M400.58 303.18C399 312.62 396.83 322 397.05 333" stroke="#263238" stroke-miterlimit="10"/>
<path d="M403.46 291.18C403.46 291.18 402.29 296.06 400.99 303.29" stroke="#263238" stroke-miterlimit="10"/>
<path d="M368.28 344.61C368.28 344.61 370.58 348.69 374.67 344.15C376.87 341.72 385.14 316.47 385.14 316.47C385.14 316.47 369 342 368.28 344.61Z" fill="white" stroke="#263238" stroke-linecap="round" stroke-linejoin="round"/>
<path d="M352.84 268.28L363.56 264.57C363.56 264.57 363.45 287.57 365.01 293.04L366.56 298.53C366.56 298.53 356.14 281.15 353.91 275.35C351.68 269.55 352.84 268.28 352.84 268.28Z" fill="white" stroke="#263238" stroke-linecap="round" stroke-linejoin="round"/>
<path d="M375 301.63C375 301.63 373.1 296.38 369.85 297.46C366.6 298.54 364.21 298.46 363.96 299.91C363.71 301.36 372.16 306.91 372.16 306.91C372.16 306.91 378.15 306.53 375 301.63Z" fill="white" stroke="#263238" stroke-linecap="round" stroke-linejoin="round"/>
<path d="M379 326.42C379 326.42 368.44 343.89 368.3 344.61C368.3 344.61 361.06 332.35 351.3 317.33C341.54 302.31 332.36 266.79 332.36 266.79C335.159 263.969 338.833 262.182 342.78 261.72C349.64 260.8 352 261.07 352 261.07C352 261.07 358.54 284.2 365.78 294.86C370.568 301.722 376.068 308.057 382.19 313.76L385.19 316.47L379 326.42Z" fill="white" stroke="#263238" stroke-linecap="round" stroke-linejoin="round"/>
<path d="M351.08 297.74C357.347 300.058 363.733 302.04 370.21 303.68" stroke="#263238" stroke-miterlimit="10"/>
<path d="M345.23 295.58C345.23 295.58 346.07 295.91 347.49 296.43" stroke="#263238" stroke-miterlimit="10"/>
<path d="M355.68 293.31C355.68 293.31 362.53 300.18 369.68 301.54" stroke="#263238" stroke-miterlimit="10"/>
<path d="M390.62 310.94C390.62 310.94 381.86 306.87 380.45 306.72C379.04 306.57 371.85 309.37 371.07 310C370.29 310.63 369.97 312 370.91 312.19C371.85 312.38 373.41 311.25 373.41 311.25L377.48 310.47L379.36 311.56C379.36 311.56 372.79 315.47 372.16 316.73C371.53 317.99 370.44 320.32 371.07 320.79C371.7 321.26 372.01 322.36 372.94 322.36C373.435 322.367 373.93 322.334 374.42 322.26C375.607 322.072 376.72 321.564 377.64 320.79C379.04 319.54 382.17 320.01 382.17 320.01C382.17 320.01 385.93 321.26 386.87 320.95C388 320.45 389.096 319.875 390.15 319.23H391.87L390.62 310.94Z" fill="white" stroke="#263238" stroke-linecap="round" stroke-linejoin="round"/>
<path d="M371.07 320.79C371.07 320.79 374.42 317.3 374.8 316.85C375.18 316.4 380.86 313.54 380.86 313.54" stroke="#263238" stroke-miterlimit="10"/>
<path d="M372.94 322.36C372.94 322.36 377.48 318.36 377.8 318.12C378.12 317.88 381.94 316.34 381.94 316.34" stroke="#263238" stroke-miterlimit="10"/>
<path d="M442.72 267.87C442.72 267.87 436.62 265.87 432.4 272.41C428.18 278.95 425.65 310.61 425.65 310.61L390.65 310.94L391.27 320.64C391.27 320.64 424.43 324.22 430.84 324.22C437.25 324.22 438.98 325.31 439.76 322.97C440.54 320.63 447.44 292.12 448.38 283.05C449.32 273.98 445.69 268.5 442.72 267.87Z" fill="white" stroke="#263238" stroke-linecap="round" stroke-linejoin="round"/>
<path d="M391 339.41C391 339.41 381.34 337.95 380.79 339.04C380.24 340.13 380.79 355.04 381.7 355.99C382.61 356.94 388.81 358.18 390.63 357.08C392.45 355.98 393.55 355.26 393.91 354.35C394.27 353.44 394.28 341.96 393.55 340.5C393.29 340.077 392.905 339.745 392.448 339.549C391.992 339.354 391.486 339.305 391 339.41Z" fill="#263238" stroke="#263238" stroke-linecap="round" stroke-linejoin="round"/>
<path d="M402.47 341.23C402.47 341.23 401 356 403.38 356.9C406.035 357.713 408.805 358.084 411.58 358C412.49 357.81 415.77 357.27 416.32 355.81C416.87 354.35 416.86 342.87 416.5 341.81C416.14 340.75 403.38 339.77 402.47 341.23Z" fill="#263238" stroke="#263238" stroke-linecap="round" stroke-linejoin="round"/>
<path d="M425.43 342.87C425.43 342.87 426.16 359.45 426.52 360.18C426.88 360.91 433.81 365.47 435.08 365.28C436.35 365.09 446.56 364.01 447.08 362C447.6 359.99 448.9 343.78 447.81 342C446.72 340.22 444.35 339.45 442.16 339.27C439.97 339.09 427.22 340.91 427.22 340.91C426.728 340.948 426.27 341.172 425.937 341.536C425.605 341.9 425.423 342.377 425.43 342.87Z" fill="#263238" stroke="#263238" stroke-linecap="round" stroke-linejoin="round"/>
<path d="M412.38 256.3L404.87 260.37L407.53 265.22L403.77 288.68C403.77 288.68 426 259.74 426.3 259.27C427.745 258.277 429.259 257.388 430.83 256.61L429.42 250.82L427.08 251.45L412.38 256.3Z" fill="#263238" stroke="#263238" stroke-linecap="round" stroke-linejoin="round"/>
<path d="M404.45 224C404.45 224 403.1 228.17 403.1 228.73C403.171 229.486 403.284 230.237 403.44 230.98C403.44 230.98 399.28 236.83 399.5 237.16C399.72 237.49 402.2 240.09 402.2 240.09C402.2 240.09 402.42 248.86 403.55 248.98C404.68 249.1 411.99 249.09 411.99 249.09L411.31 261.91L428.07 252.24L428.41 240.99C428.41 240.99 432.91 235.25 432.91 232.33C432.91 229.41 432.46 228.84 432.46 228.84L404.45 224Z" fill="white" stroke="#263238" stroke-linecap="round" stroke-linejoin="round"/>
<path d="M432.46 228.83L414.55 225.74L414.69 227.03L414.01 233.22C414.01 233.22 418.73 229.96 419.63 229.51C420.53 229.06 422.33 232.21 421.32 234.12C420.31 236.03 416.93 238.62 416.93 238.62C416.93 238.62 420.65 242.44 424.47 242.62C425.779 242.702 427.092 242.594 428.37 242.3V240.93C428.37 240.93 432.87 235.19 432.87 232.27C432.87 229.35 432.46 228.83 432.46 228.83Z" fill="#263238" stroke="#263238" stroke-linecap="round" stroke-linejoin="round"/>
<path d="M404.22 228.38C404.759 228.06 405.394 227.941 406.012 228.043C406.631 228.146 407.193 228.463 407.6 228.94" stroke="#263238" stroke-miterlimit="10"/>
<path d="M405.35 232.77C405.659 232.77 405.91 232.166 405.91 231.42C405.91 230.674 405.659 230.07 405.35 230.07C405.041 230.07 404.79 230.674 404.79 231.42C404.79 232.166 405.041 232.77 405.35 232.77Z" fill="#263238"/>
<path d="M408.84 248.85L415.7 248.06L411.99 252.45V249.08L408.84 248.85Z" fill="#263238" stroke="#263238" stroke-miterlimit="10"/>
<path d="M422.11 230.52L428.37 242.35L431.33 239.52L425.71 230.18L422.11 230.52Z" fill="white" stroke="#263238" stroke-linecap="round" stroke-linejoin="round"/>
<path d="M402.24 221.3C402.24 221.3 394.31 222.3 395.29 222.66C396.27 223.02 437.21 235.6 437.21 235.6C436.836 234.313 436.562 232.999 436.39 231.67C436.39 230.67 438.03 224.3 437.39 217.75C436.75 211.2 422.89 207.54 416.02 206.89C409.15 206.24 405.7 209.51 405.02 213.11C404.377 215.928 403.445 218.673 402.24 221.3Z" fill="#1FC55C" stroke="#263238" stroke-linecap="round" stroke-linejoin="round"/>
<path d="M413.6 224.73L406.37 222.13C406.37 222.13 410.57 212.58 410.42 211.42C410.334 210.7 410.288 209.975 410.28 209.25C410.28 209.25 410.42 207.37 416.79 208.1" stroke="#263238" stroke-linecap="round" stroke-linejoin="round"/>
</g>
</g>
<defs>
<clipPath id="clip0_1146_1369">
<rect width="500" height="500" fill="white"/>
</clipPath>
<clipPath id="clip1_1146_1369">
<rect width="500" height="500" fill="white"/>
</clipPath>
</defs>
</svg>
