<svg width="464" height="333" viewBox="0 0 464 333" fill="none" xmlns="http://www.w3.org/2000/svg">
<path d="M411.416 6.04582e-06L416.902 23.7625C443.309 138.143 392.499 204.6 315.035 222.484L292.802 227.617C287.018 191.258 292.982 167.067 315.656 134.726C326.808 118.824 323.929 111.792 317.965 117.586C276.892 157.479 262.183 201.973 275.515 264.521L276.495 268.925L253.117 274.322C249.378 258.128 247.341 243.118 246.925 229.048C240.694 214.292 234.533 193.739 228.442 167.388C213.292 101.768 253.344 36.4939 317.903 21.5892C341.281 16.1919 367.403 22.6759 411.416 6.04582e-06Z" fill="currentColor"/>
<g clip-path="url(#clip0_1168_6)">
<path fill-rule="evenodd" clip-rule="evenodd" d="M78.9838 119.085C75.099 118.743 71.1384 119.241 67.4208 120.538C63.7032 121.836 60.3324 123.897 57.5797 126.555C54.827 129.214 52.7694 132.396 51.5724 135.846C50.3753 139.295 50.0724 142.916 50.6879 146.416C53.0482 162.852 57.8187 188.138 67.0018 213.323C76.1237 238.386 89.9323 264.246 110.929 280.933C132.874 299.054 159.216 303.281 182.488 301.936C205.591 300.584 226.157 293.732 237.702 289.128C240.904 287.891 243.892 286.207 246.556 284.139C218.727 245.151 174.227 205.474 115.095 175.742C112.794 174.585 111.133 172.621 110.479 170.283C109.825 167.944 110.231 165.421 111.608 163.27C112.984 161.119 115.219 159.515 117.819 158.812C120.42 158.109 123.175 158.363 125.476 159.52C183.438 188.666 228.251 227.098 258.006 265.972C261.624 254.843 265.571 238.424 264.869 220.718C264.041 199.721 256.674 176.552 234.219 158.533C213.469 141.835 183.256 132.325 154.482 126.811C125.673 121.29 97.2766 119.581 78.9838 119.085Z" fill="currentColor"/>
</g>
<defs>
<clipPath id="clip0_1168_6">
<rect width="260" height="260" fill="white" transform="translate(0 79.4873) rotate(-13)"/>
</clipPath>
</defs>
</svg>
