<svg width="708" height="396" viewBox="0 0 708 396" fill="none" xmlns="http://www.w3.org/2000/svg">
<circle cx="180" cy="193" r="180" fill="currentColor"/>
<path d="M421.584 165.128C418.592 160.2 414.456 156.416 409.176 153.776C404.072 151.136 398 149.816 390.96 149.816C377.936 149.816 367.64 154.04 360.072 162.488C352.68 170.936 348.984 182.288 348.984 196.544C348.984 212.56 352.944 224.792 360.864 233.24C368.96 241.512 380.664 245.648 395.976 245.648C414.104 245.648 427.04 237.464 434.784 221.096H382.776V183.872H479.4V234.032C475.352 243.888 469.368 253.128 461.448 261.752C453.704 270.376 443.848 277.504 431.88 283.136C419.912 288.592 406.272 291.32 390.96 291.32C372.304 291.32 355.76 287.36 341.328 279.44C327.072 271.344 315.984 260.168 308.064 245.912C300.32 231.48 296.448 215.024 296.448 196.544C296.448 178.24 300.32 161.96 308.064 147.704C315.984 133.272 327.072 122.096 341.328 114.176C355.584 106.08 372.04 102.032 390.696 102.032C414.104 102.032 433.464 107.664 448.776 118.928C464.088 130.192 473.592 145.592 477.288 165.128H421.584ZM592.808 153.219C592.058 145.656 588.84 139.781 583.152 135.594C577.465 131.406 569.746 129.312 559.996 129.312C553.371 129.312 547.777 130.25 543.215 132.125C538.652 133.938 535.152 136.469 532.715 139.719C530.34 142.969 529.152 146.656 529.152 150.781C529.027 154.219 529.746 157.219 531.308 159.781C532.933 162.344 535.152 164.562 537.965 166.437C540.777 168.25 544.027 169.844 547.715 171.219C551.402 172.531 555.34 173.656 559.527 174.594L576.777 178.719C585.152 180.594 592.84 183.094 599.84 186.219C606.84 189.344 612.902 193.187 618.027 197.75C623.152 202.312 627.121 207.687 629.933 213.875C632.808 220.062 634.277 227.156 634.34 235.156C634.277 246.906 631.277 257.094 625.34 265.719C619.465 274.281 610.965 280.937 599.84 285.687C588.777 290.375 575.433 292.719 559.808 292.719C544.308 292.719 530.808 290.344 519.308 285.594C507.871 280.844 498.933 273.812 492.496 264.5C486.121 255.125 482.777 243.531 482.465 229.719H521.746C522.183 236.156 524.027 241.531 527.277 245.844C530.59 250.094 534.996 253.312 540.496 255.5C546.058 257.625 552.34 258.687 559.34 258.687C566.215 258.687 572.183 257.687 577.246 255.687C582.371 253.687 586.34 250.906 589.152 247.344C591.965 243.781 593.371 239.687 593.371 235.062C593.371 230.75 592.09 227.125 589.527 224.187C587.027 221.25 583.34 218.75 578.465 216.687C573.652 214.625 567.746 212.75 560.746 211.062L539.84 205.812C523.652 201.875 510.871 195.719 501.496 187.344C492.121 178.969 487.465 167.687 487.527 153.5C487.465 141.875 490.558 131.719 496.808 123.031C503.121 114.344 511.777 107.562 522.777 102.687C533.777 97.8125 546.277 95.375 560.277 95.375C574.527 95.375 586.965 97.8125 597.59 102.687C608.277 107.562 616.59 114.344 622.527 123.031C628.465 131.719 631.527 141.781 631.715 153.219H592.808ZM668.398 292.438C662.211 292.438 656.898 290.25 652.461 285.875C648.086 281.437 645.898 276.125 645.898 269.937C645.898 263.812 648.086 258.562 652.461 254.188C656.898 249.812 662.211 247.625 668.398 247.625C674.398 247.625 679.648 249.812 684.148 254.188C688.648 258.562 690.898 263.812 690.898 269.937C690.898 274.062 689.836 277.844 687.711 281.281C685.648 284.656 682.929 287.375 679.554 289.437C676.179 291.438 672.461 292.438 668.398 292.438Z" fill="currentColor"/>
</svg>
