<svg width="312" height="312" viewBox="0 0 312 312" fill="none" xmlns="http://www.w3.org/2000/svg">
<g clip-path="url(#clip0_1158_26)">
<path fill-rule="evenodd" clip-rule="evenodd" d="M78.9838 98.0855C75.099 97.7432 71.1384 98.2408 67.4208 99.5383C63.7032 100.836 60.3324 102.897 57.5797 105.556C54.827 108.214 52.7694 111.396 51.5724 114.846C50.3753 118.295 50.0724 121.916 50.6879 125.416C53.0482 141.852 57.8187 167.138 67.0018 192.323C76.1237 217.386 89.9323 243.246 110.929 259.933C132.874 278.054 159.216 282.281 182.488 280.936C205.591 279.584 226.157 272.732 237.702 268.128C240.904 266.891 243.892 265.207 246.556 263.139C218.727 224.151 174.227 184.474 115.095 154.742C112.794 153.585 111.133 151.621 110.479 149.283C109.825 146.944 110.231 144.421 111.608 142.27C112.984 140.119 115.219 138.515 117.819 137.812C120.42 137.109 123.175 137.363 125.476 138.52C183.438 167.666 228.251 206.098 258.006 244.972C261.624 233.843 265.571 217.424 264.869 199.718C264.041 178.721 256.674 155.552 234.219 137.534C213.469 120.835 183.256 111.325 154.482 105.811C125.673 100.29 97.2766 98.5808 78.9838 98.0855Z" fill="#F5F5F5"/>
</g>
<defs>
<clipPath id="clip0_1158_26">
<rect width="260" height="260" fill="white" transform="translate(0 58.4873) rotate(-13)"/>
</clipPath>
</defs>
</svg>
