<svg width="199" height="275" viewBox="0 0 199 275" fill="none" xmlns="http://www.w3.org/2000/svg">
<path d="M186.416 6.04582e-06L191.902 23.7625C218.309 138.143 167.499 204.6 90.0346 222.484L67.8018 227.617C62.018 191.258 67.9819 167.067 90.6556 134.726C101.808 118.824 98.9288 111.792 92.9654 117.586C51.8925 157.479 37.1832 201.973 50.5155 264.521L51.4953 268.925L28.117 274.322C24.3783 258.128 22.3412 243.118 21.9246 229.048C15.6944 214.292 9.53348 193.739 3.44171 167.388C-11.7079 101.768 28.344 36.4939 92.9031 21.5892C116.281 16.1919 142.403 22.6759 186.416 6.04582e-06Z" fill="#F5F5F5"/>
</svg>
