<svg width="28" height="28" viewBox="0 0 28 28" fill="none" xmlns="http://www.w3.org/2000/svg">
  <g clip-path="url(#clip0_958_2033)">
    <path d="M14.1374 6V17.7445C14.1372 16.7049 14.4263 15.6885 14.9681 14.8239C15.5099 13.9594 16.2801 13.2855 17.1811 12.8875C18.0823 12.4896 19.0739 12.3854 20.0306 12.5883C20.9871 12.791 21.8659 13.2917 22.5556 14.0268C23.2453 14.762 23.715 15.6987 23.9053 16.7184C24.0955 17.7381 23.9978 18.795 23.6245 19.7555C23.2511 20.7161 22.6189 21.5371 21.8078 22.1145C20.9968 22.692 20.0432 23.0002 19.0678 23C12.3391 23 12.24 15.9714 7.94522 15.9714C4.24956 15.9714 4 19.0051 4 19.0051"
      stroke="currentColor" stroke-width="2.5" stroke-linecap="round" stroke-linejoin="round" fill="none"/>
    <path d="M24.1892 1H3.81081C3.06534 1 2.3504 1.29614 1.82327 1.82327C1.29614 2.3504 1 3.06534 1 3.81081V24.1892C1 24.9347 1.29614 25.6496 1.82327 26.1767C2.3504 26.7039 3.06534 27 3.81081 27H24.1892C24.9347 27 25.6496 26.7039 26.1767 26.1767C26.7039 25.6496 27 24.9347 27 24.1892V3.81081C27 3.06534 26.7039 2.3504 26.1767 1.82327C25.6496 1.29614 24.9347 1 24.1892 1Z"
      stroke="currentColor" stroke-width="2.5" stroke-linecap="round" stroke-linejoin="round" fill="none"/>
  </g>
  <defs>
    <clipPath id="clip0_958_2033">
      <rect width="28" height="28" fill="none"/>
    </clipPath>
  </defs>
</svg>