<svg viewBox="0 0 28 28" fill="none" xmlns="http://www.w3.org/2000/svg">
<path d="M8.64007 0.666748H19.8401C24.1067 0.666748 27.5734 4.13342 27.5734 8.40008V19.6001C27.5734 21.6511 26.7587 23.6181 25.3084 25.0684C23.8581 26.5187 21.8911 27.3334 19.8401 27.3334H8.64007C4.37341 27.3334 0.906738 23.8668 0.906738 19.6001V8.40008C0.906738 6.34908 1.7215 4.38207 3.17178 2.93179C4.62206 1.48151 6.58907 0.666748 8.64007 0.666748ZM8.37341 3.33342C7.10037 3.33342 5.87947 3.83913 4.97929 4.7393C4.07912 5.63948 3.57341 6.86038 3.57341 8.13342V19.8668C3.57341 22.5201 5.72007 24.6668 8.37341 24.6668H20.1067C21.3798 24.6668 22.6007 24.161 23.5009 23.2609C24.401 22.3607 24.9067 21.1398 24.9067 19.8668V8.13342C24.9067 5.48008 22.7601 3.33342 20.1067 3.33342H8.37341ZM21.2401 5.33342C21.6821 5.33342 22.106 5.50901 22.4186 5.82157C22.7311 6.13413 22.9067 6.55805 22.9067 7.00008C22.9067 7.44211 22.7311 7.86603 22.4186 8.17859C22.106 8.49116 21.6821 8.66675 21.2401 8.66675C20.798 8.66675 20.3741 8.49116 20.0616 8.17859C19.749 7.86603 19.5734 7.44211 19.5734 7.00008C19.5734 6.55805 19.749 6.13413 20.0616 5.82157C20.3741 5.50901 20.798 5.33342 21.2401 5.33342ZM14.2401 7.33342C16.0082 7.33342 17.7039 8.0358 18.9541 9.28604C20.2044 10.5363 20.9067 12.232 20.9067 14.0001C20.9067 15.7682 20.2044 17.4639 18.9541 18.7141C17.7039 19.9644 16.0082 20.6668 14.2401 20.6668C12.472 20.6668 10.7763 19.9644 9.52603 18.7141C8.27579 17.4639 7.57341 15.7682 7.57341 14.0001C7.57341 12.232 8.27579 10.5363 9.52603 9.28604C10.7763 8.0358 12.472 7.33342 14.2401 7.33342ZM14.2401 10.0001C13.1792 10.0001 12.1618 10.4215 11.4116 11.1717C10.6615 11.9218 10.2401 12.9392 10.2401 14.0001C10.2401 15.061 10.6615 16.0784 11.4116 16.8285C12.1618 17.5787 13.1792 18.0001 14.2401 18.0001C15.3009 18.0001 16.3184 17.5787 17.0685 16.8285C17.8186 16.0784 18.2401 15.061 18.2401 14.0001C18.2401 12.9392 17.8186 11.9218 17.0685 11.1717C16.3184 10.4215 15.3009 10.0001 14.2401 10.0001Z" fill="currentColor"/>
</svg>
