<svg width="24" height="24" viewBox="0 0 24 24" fill="none" xmlns="http://www.w3.org/2000/svg">
<path d="M7 4V11L9.5 9.5L12 11V4H7ZM18 23C16.6167 23 15.4377 22.5123 14.463 21.537C13.4883 20.5617 13.0007 19.3827 13 18C12.9993 16.6173 13.487 15.4383 14.463 14.463C15.439 13.4877 16.618 13 18 13C19.382 13 20.5613 13.4877 21.538 14.463C22.5147 15.4383 23.002 16.6173 23 18C22.998 19.3827 22.5103 20.562 21.537 21.538C20.5637 22.514 19.3847 23.0013 18 23ZM16.75 20.5L20.75 18L16.75 15.5V20.5ZM11 17.993C11 18.7143 11.1127 19.4127 11.338 20.088C11.5633 20.7633 11.8673 21.4007 12.25 22H5C4.45 22 3.97933 21.8043 3.588 21.413C3.19667 21.0217 3.00067 20.5507 3 20V4C3 3.45 3.196 2.97933 3.588 2.588C3.98 2.19667 4.45067 2.00067 5 2H17C17.55 2 18.021 2.196 18.413 2.588C18.805 2.98 19.0007 3.45067 19 4V11.05C18.8327 11.0333 18.665 11.0207 18.497 11.012C18.329 11.0033 18.161 10.9993 17.993 11C16.0477 11 14.396 11.6793 13.038 13.038C11.68 14.3967 11.0007 16.0483 11 17.993Z" fill="currentColor"/>
</svg>
