<svg width="24" height="24" viewBox="0 0 24 24" fill="none" xmlns="http://www.w3.org/2000/svg">
<path fill-rule="evenodd" clip-rule="evenodd" d="M19.7069 16.2071C19.5194 16.3946 19.2651 16.4999 18.9999 16.4999C18.7348 16.4999 18.4804 16.3946 18.2929 16.2071L11.9999 9.91412L5.70692 16.2071C5.51832 16.3893 5.26571 16.4901 5.00352 16.4878C4.74132 16.4855 4.49051 16.3804 4.3051 16.1949C4.11969 16.0095 4.01452 15.7587 4.01224 15.4965C4.00997 15.2343 4.11076 14.9817 4.29292 14.7931L10.5859 8.50012C10.961 8.12518 11.4696 7.91455 11.9999 7.91455C12.5302 7.91455 13.0389 8.12518 13.4139 8.50012L19.7069 14.7931C19.8944 14.9807 19.9997 15.235 19.9997 15.5001C19.9997 15.7653 19.8944 16.0196 19.7069 16.2071Z" fill="currentColor"/>
</svg>
