<svg width="24" height="24" viewBox="0 0 24 24" fill="none" xmlns="http://www.w3.org/2000/svg">
<path fill-rule="evenodd" clip-rule="evenodd" d="M4.29303 7.79308C4.48056 7.60561 4.73487 7.50029 5.00003 7.50029C5.26519 7.50029 5.5195 7.60561 5.70703 7.79308L12 14.0861L18.293 7.79308C18.3853 7.69757 18.4956 7.62139 18.6176 7.56898C18.7396 7.51657 18.8709 7.48898 19.0036 7.48783C19.1364 7.48668 19.2681 7.51198 19.391 7.56226C19.5139 7.61254 19.6255 7.68679 19.7194 7.78069C19.8133 7.87458 19.8876 7.98623 19.9379 8.10913C19.9881 8.23202 20.0134 8.3637 20.0123 8.49648C20.0111 8.62926 19.9835 8.76048 19.9311 8.88249C19.8787 9.00449 19.8025 9.11483 19.707 9.20708L13.414 15.5001C13.039 15.875 12.5304 16.0857 12 16.0857C11.4697 16.0857 10.9611 15.875 10.586 15.5001L4.29303 9.20708C4.10556 9.01955 4.00024 8.76525 4.00024 8.50008C4.00024 8.23492 4.10556 7.98061 4.29303 7.79308Z" fill="currentColor"/>
</svg>
